PathFileType	4	(X/Y/Z)	 s04c0102.trc
DataRate	CameraRate	NumFrames	NumMarkers	Units	OrigDataRate	OrigDataStartFrame	OrigNumFrames
200	200	4	50	mm	200	1251	2000
Frame#	Time	racr			lacr			c7			jug			rlel			rdr			llel			ldr			s2			lic			ric			lasi			rasi			rpsi			lpsi			rgt			lgt			rth1			rth2			rth3			rth4			rlfc			rmfc			rsh1			rsh2			rsh3			rsh4			rlmal			rmmal			rcal			rtoe			rmt5			lth1			lth2			lth4			lth3			llfc			lmfc			lsh1			lsh2			lsh3			lsh4			llmal			lmmal			lcal			ltoe			lmt5			SBIKE			LBIKE			RBIKE			
		X1	Y1	Z1	X2	Y2	Z2	X3	Y3	Z3	X4	Y4	Z4	X5	Y5	Z5	X6	Y6	Z6	X7	Y7	Z7	X8	Y8	Z8	X9	Y9	Z9	X10	Y10	Z10	X11	Y11	Z11	X12	Y12	Z12	X13	Y13	Z13	X14	Y14	Z14	X15	Y15	Z15	X16	Y16	Z16	X17	Y17	Z17	X18	Y18	Z18	X19	Y19	Z19	X20	Y20	Z20	X21	Y21	Z21	X22	Y22	Z22	X23	Y23	Z23	X24	Y24	Z24	X25	Y25	Z25	X26	Y26	Z26	X27	Y27	Z27	X28	Y28	Z28	X29	Y29	Z29	X30	Y30	Z30	X31	Y31	Z31	X32	Y32	Z32	X33	Y33	Z33	X34	Y34	Z34	X35	Y35	Z35	X36	Y36	Z36	X37	Y37	Z37	X38	Y38	Z38	X39	Y39	Z39	X40	Y40	Z40	X41	Y41	Z41	X42	Y42	Z42	X43	Y43	Z43	X44	Y44	Z44	X45	Y45	Z45	X46	Y46	Z46	X47	Y47	Z47	X48	Y48	Z48	X49	Y49	Z49	X50	Y50	Z50	
1251	6.2550	508.987984	1343.927179	-133.325287	526.865030	1331.786299	-386.885844	498.281795	1395.347798	-263.011434	436.027867	1246.024997	-272.030408	447.627462	1065.798402	25.213758	681.171404	916.506467	-73.846631	457.654183	1077.819467	-531.008000	688.675891	926.279580	-453.734686	-69.353596	1173.822965	-275.662003	82.229334	1197.715065	-430.532044	79.352796	1184.461120	-107.435661	124.135306	1158.533250	-384.795940	118.853177	1153.398637	-84.095450	-41.984662	1216.897376	-230.279777	-44.629280	1223.696845	-304.994518	31.972508	1119.298780	-96.980323	64.328899	1112.369167	-457.752967	131.560365	989.515849	-66.652273	202.422208	936.481711	-62.883469	239.232891	859.478001	-59.986280	229.649724	958.857305	-75.415011	308.139102	732.511618	-73.969914	303.948674	717.520692	-188.831779	224.469923	637.247414	-61.076704	189.265911	556.076184	-84.210394	118.088230	510.293108	-102.625090	218.412821	539.938809	-104.242584	32.974617	385.879336	-123.359809	68.164341	383.689487	-204.153992	-34.641189	392.198687	-173.259613	209.480424	214.376824	-146.907804	135.179212	230.160824	-98.972393	137.259401	1053.353408	-459.780896	221.639590	1035.717935	-455.854923	237.248722	1067.663618	-446.325729	288.264851	976.616314	-453.233334	416.218185	882.794702	-422.268061	440.722247	860.609076	-311.844602	396.187288	766.613274	-449.827943	385.312490	681.320734	-432.353516	335.147157	608.267693	-436.420923	409.422287	674.524656	-401.774895	276.967668	476.969811	-439.732786	268.373892	474.174667	-351.734831	194.488070	450.540496	-403.841624	494.930700	444.376019	-399.103339	428.407427	405.592974	-463.705735	-177.700436	937.029536	-279.718841	-3.481329	85.261944	-484.760371	-15.168825	80.295932	-84.272770	
1252	6.2600	508.302582	1344.331794	-132.789675	527.895593	1332.494841	-387.235901	498.235596	1395.417590	-262.443512	436.863891	1245.731262	-271.678517	446.729762	1065.551367	24.448606	681.205498	916.482877	-73.798801	458.463141	1078.287020	-530.944209	689.077059	926.000435	-453.707455	-69.274983	1171.834704	-276.263672	82.707167	1195.522289	-431.306776	79.645787	1183.362842	-108.031994	124.877685	1155.969607	-385.005568	119.105840	1152.915103	-84.844954	-42.010154	1214.731267	-231.224801	-45.223579	1222.336751	-305.044608	32.505662	1118.136966	-97.357951	65.076951	1106.640021	-457.365388	133.772606	990.561097	-67.414792	205.562093	938.922625	-63.232843	243.856236	862.677860	-59.411237	232.182769	961.298073	-76.679016	313.723273	736.450120	-72.884394	309.890784	721.421716	-187.793779	228.550308	642.942096	-60.381367	191.607308	562.693324	-83.851364	119.357322	518.550667	-102.539028	220.400836	546.041838	-103.941825	31.280609	396.606142	-123.815808	66.443458	393.910392	-204.597295	-36.169488	404.257476	-173.850375	204.739546	222.090085	-146.914642	130.706301	239.310322	-99.135690	137.337298	1046.941669	-459.394862	221.950295	1028.237679	-456.062447	238.111354	1060.075441	-446.941697	287.480708	968.023343	-452.890264	412.802418	871.500218	-422.135855	435.977921	849.301178	-312.467889	393.427842	754.682493	-450.176836	384.544906	669.414740	-431.869291	336.346761	595.208432	-435.590588	408.920676	663.338233	-401.338397	279.721790	463.858742	-439.447491	270.562638	459.523661	-352.582486	197.451726	435.742582	-403.820591	498.304498	436.274595	-398.968728	432.586066	396.046075	-463.533634	-177.638308	937.008073	-279.699226	-3.458296	85.249175	-484.756800	-14.936643	80.026032	-84.327677	
1253	6.2650	507.783328	1344.683621	-132.256850	528.270991	1332.777239	-386.476021	498.231771	1395.636821	-261.824621	436.790287	1245.976558	-271.210599	446.354875	1065.370500	23.684981	681.573751	916.379479	-73.787288	459.496333	1078.592970	-530.867852	689.583316	925.654143	-453.582016	-69.104636	1170.045685	-276.894494	83.285438	1193.515125	-432.153205	80.040493	1182.433529	-108.589996	125.788645	1153.271965	-385.208805	119.461045	1152.563153	-85.618937	-41.989259	1213.099770	-231.861560	-44.993849	1220.311376	-305.834866	33.241469	1117.081464	-97.668137	65.832114	1101.358012	-456.900784	135.980619	991.868465	-68.129367	208.654100	941.371706	-63.531947	248.286189	865.913463	-59.000720	234.892676	964.019730	-77.213492	319.255157	740.388704	-71.912294	315.774450	725.272135	-186.713164	232.627049	648.809939	-59.682628	193.977293	569.404985	-83.589734	120.797923	526.944685	-102.389847	223.461110	552.476725	-103.577184	29.903901	407.469909	-124.254558	65.234460	404.098453	-204.943726	-37.338961	416.287096	-174.366228	200.576996	230.422393	-146.897460	126.845167	248.872618	-99.249599	138.015872	1041.479419	-459.849705	222.293810	1021.195943	-456.326226	239.057028	1052.788198	-447.450364	286.684124	959.848869	-452.657591	409.189520	860.735923	-422.265492	432.424037	839.009067	-312.642770	390.761727	744.117083	-450.487252	383.431783	658.915414	-431.909164	336.751090	583.786382	-435.063543	408.352501	653.248149	-401.739193	282.079692	451.184058	-439.323895	273.655529	447.365658	-352.181129	200.707863	421.933646	-404.277469	501.221202	427.636739	-398.719021	436.259986	386.253985	-463.334134	-177.525438	937.031253	-279.721899	-3.414777	85.245935	-484.754132	-15.142512	80.279838	-84.286339	
1254	6.2700	507.314172	1344.960633	-131.700910	529.054256	1332.955013	-385.878989	498.230806	1396.146694	-261.461705	436.993189	1246.420347	-271.305639	446.342831	1065.168075	22.898517	682.119858	916.270287	-73.777246	460.742280	1078.896216	-530.879288	690.195357	925.325549	-453.359788	-68.299744	1168.355160	-278.611136	83.807811	1191.844368	-432.947450	80.508318	1181.723215	-109.187080	126.536528	1151.624705	-385.856424	119.899343	1152.368571	-86.407952	-41.931751	1211.749026	-232.431839	-44.845741	1218.559402	-306.511542	34.148861	1116.171158	-97.886899	66.466717	1096.562351	-456.484787	138.251106	993.115140	-68.712096	211.728968	943.971881	-63.791157	252.568004	869.209043	-58.442772	237.778689	967.040841	-76.676391	324.682458	744.686995	-70.991978	321.442118	729.299490	-185.801293	236.489924	654.914403	-59.124304	196.385096	576.372376	-83.206561	122.387067	535.478630	-102.211747	225.676115	559.036865	-103.329847	29.025918	418.326113	-124.519155	63.816963	414.957515	-205.222136	-38.166830	428.121174	-174.786710	197.098036	238.975621	-146.960037	123.659298	258.531847	-99.292598	138.726908	1036.523290	-460.575652	222.555723	1014.643404	-456.647164	239.937372	1045.903732	-447.935595	285.844365	952.134942	-452.604985	405.122950	850.827312	-422.681526	428.505954	829.889503	-312.512007	388.097891	734.174404	-450.624289	382.176389	648.754020	-432.187657	336.607130	572.911582	-435.337785	407.343439	643.366537	-402.215695	284.273142	438.847526	-439.421700	275.367990	437.098163	-352.883529	203.273798	407.936971	-403.941709	503.737094	418.521015	-398.621030	439.401312	376.225965	-463.238376	-177.394178	937.034338	-279.700000	-3.375286	85.239588	-484.737175	-14.882042	80.006855	-84.313040	
